<?xml version="1.0" encoding="UTF-8" standalone="no"?>
<!DOCTYPE svg PUBLIC "-//W3C//DTD SVG 1.1//EN"
 "http://www.w3.org/Graphics/SVG/1.1/DTD/svg11.dtd">
<!-- Generated by graphviz version 2.40.1 (20161225.0304)
 -->
<!-- Title: 3 Pages: 1 -->
<svg width="271pt" height="52pt"
 viewBox="0.00 0.00 270.55 52.00" xmlns="http://www.w3.org/2000/svg" xmlns:xlink="http://www.w3.org/1999/xlink">
<g id="graph0" class="graph" transform="scale(1 1) rotate(0) translate(4 48)">
<title>3</title>
<polygon fill="#ffffff" stroke="transparent" points="-4,4 -4,-48 266.549,-48 266.549,4 -4,4"/>
<!-- n1 -->
<g id="node1" class="node">
<title>n1</title>
<ellipse fill="none" stroke="#000000" cx="27" cy="-22" rx="27" ry="18"/>
</g>
<!-- n2 -->
<g id="node2" class="node">
<title>n2</title>
<ellipse fill="none" stroke="#000000" cx="123.2146" cy="-22" rx="27" ry="18"/>
</g>
<!-- n1&#45;&gt;n2 -->
<g id="edge1" class="edge">
<title>n1&#45;&gt;n2</title>
<path fill="none" stroke="#000000" d="M54.0572,-22C63.8952,-22 75.1961,-22 85.7729,-22"/>
<polygon fill="#000000" stroke="#000000" points="86.0272,-25.5001 96.0271,-22 86.0271,-18.5001 86.0272,-25.5001"/>
<text text-anchor="middle" x="75.1073" y="-26.2" font-family="Times,serif" font-size="14.00" fill="#000000">a</text>
</g>
<!-- n3 -->
<g id="node3" class="node">
<title>n3</title>
<ellipse fill="none" stroke="#000000" cx="240.549" cy="-22" rx="18" ry="18"/>
<ellipse fill="none" stroke="#000000" cx="240.549" cy="-22" rx="22" ry="22"/>
</g>
<!-- n2&#45;&gt;n3 -->
<g id="edge2" class="edge">
<title>n2&#45;&gt;n3</title>
<path fill="none" stroke="#000000" d="M150.4284,-22C167.6323,-22 189.9597,-22 208.0863,-22"/>
<polygon fill="#000000" stroke="#000000" points="208.2031,-25.5001 218.2031,-22 208.2031,-18.5001 208.2031,-25.5001"/>
<text text-anchor="middle" x="184.3818" y="-26.2" font-family="Times,serif" font-size="14.00" fill="#000000">(b|c)*</text>
</g>
</g>
</svg>
